# xmcd CD database file
#
# Track frame offsets:
#	150
#	21279
#	41507
#	63158
#	79970
#	101686
#	119736
#
# Disc length: 1809 seconds
#
# Revision: 0
# Processed by: cddbd v1.5.2PL0 Copyright (c) Steve Scherf et al.
# Submitted via: CDex 1.51
#
DISCID=5a070f07
DTITLE=青木カレン - Gloovin' Jazz Night
DYEAR=2007
DGENRE=Jazz
TTITLE0=Butterfly
TTITLE1=My Favorite Things
TTITLE2=Smooth Operater
TTITLE3=In My Life
TTITLE4=Smells Like Teens Spirit
TTITLE5=Devil May Care
TTITLE6=Moon River
EXTD=YEAR: 2007
EXTT0=
EXTT1=
EXTT2=
EXTT3=
EXTT4=
EXTT5=
EXTT6=
PLAYORDER=
